<svg width="64" height="64" viewBox="0 0 64 64" xmlns="http://www.w3.org/2000/svg">
  <defs>
    <!-- Professional Gradients -->
    <linearGradient id="brandGradient" x1="0%" y1="0%" x2="100%" y2="0%">
      <stop offset="0%" style="stop-color:#FF6B35;stop-opacity:1" />
      <stop offset="100%" style="stop-color:#FF8C42;stop-opacity:1" />
    </linearGradient>
    
    <linearGradient id="accentGradient" x1="0%" y1="0%" x2="100%" y2="100%">
      <stop offset="0%" style="stop-color:#FFA500;stop-opacity:1" />
      <stop offset="100%" style="stop-color:#FF6B35;stop-opacity:1" />
    </linearGradient>
  </defs>
  
  <!-- Hexagonal Icon Container -->
  <g transform="translate(32,32)">
    <!-- Main Hexagon -->
    <polygon points="0,-24 20,-12 20,12 0,24 -20,12 -20,-12" 
             fill="#1A1A1A" 
             stroke="url(#brandGradient)" 
             stroke-width="2"/>
    
    <!-- Building Materials Icons Grid -->
    <!-- M-Sand (Top) -->
    <g transform="translate(0,-12)">
      <rect x="-4" y="-2" width="8" height="4" rx="0.5" fill="url(#accentGradient)"/>
      <rect x="-3" y="-1" width="6" height="0.5" fill="#FFF" opacity="0.3"/>
      <rect x="-3" y="1" width="6" height="0.5" fill="#FFF" opacity="0.3"/>
    </g>
    
    <!-- Blue Metal (Top Right) -->
    <g transform="translate(10,-6)">
      <polygon points="0,-3 1.5,0 0,0.5 0.5,3 -1.5,0 0,0.5 -0.5,-3" fill="url(#accentGradient)"/>
    </g>
    
    <!-- Red Bricks (Right) -->
    <g transform="translate(12,0)">
      <rect x="-3" y="-2" width="6" height="4" rx="0.3" fill="url(#accentGradient)"/>
      <line x1="-3" y1="0" x2="3" y2="0" stroke="#FFF" stroke-width="0.3" opacity="0.4"/>
      <line x1="-1.5" y1="-2" x2="-1.5" y2="2" stroke="#FFF" stroke-width="0.3" opacity="0.4"/>
      <line x1="1.5" y1="-2" x2="1.5" y2="2" stroke="#FFF" stroke-width="0.3" opacity="0.4"/>
    </g>
    
    <!-- AAC Blocks (Bottom Right) -->
    <g transform="translate(10,6)">
      <rect x="-3" y="-3" width="6" height="6" rx="0.3" fill="url(#accentGradient)"/>
      <rect x="-1.5" y="-1.5" width="1" height="1.5" fill="#FFF" opacity="0.3"/>
      <rect x="0.5" y="-1.5" width="1" height="1.5" fill="#FFF" opacity="0.3"/>
      <rect x="-1.5" y="0.5" width="1" height="1" fill="#FFF" opacity="0.3"/>
      <rect x="0.5" y="0.5" width="1" height="1" fill="#FFF" opacity="0.3"/>
    </g>
    
    <!-- Cement (Bottom) -->
    <g transform="translate(0,12)">
      <rect x="-1" y="-3" width="2" height="5" fill="url(#accentGradient)"/>
      <ellipse cx="0" cy="-3" rx="2.5" ry="1" fill="url(#accentGradient)"/>
    </g>
    
    <!-- Size Stone (Bottom Left) -->
    <g transform="translate(-10,6)">
      <ellipse cx="0" cy="0" rx="3" ry="2" fill="url(#accentGradient)"/>
      <ellipse cx="-0.5" cy="-0.5" rx="1" ry="0.7" fill="#FFF" opacity="0.3"/>
      <ellipse cx="1" cy="0.3" rx="0.7" ry="0.5" fill="#FFF" opacity="0.3"/>
    </g>
    
    <!-- Hammer (Left) -->
    <g transform="translate(-12,0)">
      <rect x="-0.3" y="-3" width="0.6" height="5" fill="url(#accentGradient)"/>
      <rect x="-2" y="-3" width="4" height="1.5" rx="0.3" fill="url(#accentGradient)"/>
    </g>
    
  </g>
</svg>
